# xmcd
#
# Track frame offsets: 
#        150
#        16141
#        48146
#        71312
#        94418
#        127604
#        156583
#        183629
#        207435
#        232702
#        275422
#        313386
#        332146
#
# Disc length: 4706 seconds
#
# Revision: 1
# Processed by: cddbd v1.5.2PL0 Copyright (c) Steve Scherf et al.
# Submitted via: ExactAudioCopy v1.0b1
#
DISCID=b112600d
DTITLE=Various Artist - Groove 130 CD 39
DYEAR=2011
DGENRE=House, Techno, Minimal
TTITLE0=Ada - Likely
TTITLE1=Morphosis - Silent Screamer
TTITLE2=Tin Man - Nonneo
TTITLE3=Tiger and Woods - Deflowered (Groove Edit)
TTITLE4=Egyptrixx - Recital (A Version)
TTITLE5=Roman Flugel - Lovedancing
TTITLE6=Portable - Keep On
TTITLE7=Guti - Sun
TTITLE8=Stefan Lohse - Fog Patches
TTITLE9=Pierre LX - Olympia
TTITLE10=Jonas Kopp - In My Soul
TTITLE11=BNJMN - Miniature Steps
TTITLE12=Panda Bear - Last Night At The Jetty
EXTD=
EXTT0=
EXTT1=
EXTT2=
EXTT3=
EXTT4=
EXTT5=
EXTT6=
EXTT7=
EXTT8=
EXTT9=
EXTT10=
EXTT11=
EXTT12=
PLAYORDER=
